<svg width="16" height="15" viewBox="0 0 16 15" fill="none" xmlns="http://www.w3.org/2000/svg">
<path fill-rule="evenodd" clip-rule="evenodd" d="M1.01528 5.307L1.39028 10.307C1.51993 12.3655 3.21485 13.9758 5.27728 14H10.7293C12.7921 13.9763 14.4876 12.3659 14.6173 10.307L14.9923 5.307C15.0889 4.21028 14.7245 3.12286 13.9867 2.30572C13.2488 1.48858 12.2041 1.01549 11.1033 1H4.90328C3.8026 1.01577 2.75816 1.48898 2.02054 2.30608C1.28293 3.12319 0.91871 4.21045 1.01528 5.307Z" stroke="black" stroke-width="1.5" stroke-linecap="round" stroke-linejoin="round"/>
<path d="M11.0033 5C11.0033 6.0718 10.4315 7.06218 9.5033 7.59808C8.57509 8.13397 7.4315 8.13397 6.5033 7.59808C5.57509 7.06218 5.0033 6.0718 5.0033 5" stroke="black" stroke-width="1.5" stroke-linecap="round" stroke-linejoin="round"/>
</svg>
