<svg width="20" height="16" viewBox="0 0 20 16" fill="none" xmlns="http://www.w3.org/2000/svg">
<path d="M6.85 15.0001C6.85 15.4143 7.18579 15.7501 7.6 15.7501C8.01421 15.7501 8.35 15.4143 8.35 15.0001H6.85ZM7.6 12.7691L6.85055 12.7404C6.85018 12.75 6.85 12.7595 6.85 12.7691H7.6ZM10 10.5391L9.97359 11.2886C9.99119 11.2892 10.0088 11.2892 10.0264 11.2886L10 10.5391ZM12.4 12.7691H13.15C13.15 12.7595 13.1498 12.75 13.1495 12.7404L12.4 12.7691ZM11.65 15.0001C11.65 15.4143 11.9858 15.7501 12.4 15.7501C12.8142 15.7501 13.15 15.4143 13.15 15.0001H11.65ZM7.6 14.2501C7.18579 14.2501 6.85 14.5859 6.85 15.0001C6.85 15.4143 7.18579 15.7501 7.6 15.7501V14.2501ZM12.4 15.7501C12.8142 15.7501 13.15 15.4143 13.15 15.0001C13.15 14.5859 12.8142 14.2501 12.4 14.2501V15.7501ZM7.6 15.7501C8.01421 15.7501 8.35 15.4143 8.35 15.0001C8.35 14.5859 8.01421 14.2501 7.6 14.2501V15.7501ZM7 15.0001V14.2501C6.9912 14.2501 6.9824 14.2502 6.9736 14.2505L7 15.0001ZM3.4 11.6541H2.65C2.65 11.6635 2.65018 11.673 2.65054 11.6825L3.4 11.6541ZM4.15 4.94807C4.15 4.53386 3.81421 4.19807 3.4 4.19807C2.98579 4.19807 2.65 4.53386 2.65 4.94807H4.15ZM0.578798 5.95652C0.236075 6.18914 0.146821 6.65555 0.379445 6.99827C0.612068 7.341 1.07848 7.43025 1.4212 7.19763L0.578798 5.95652ZM3.8212 5.56863C4.16393 5.336 4.25318 4.86959 4.02056 4.52687C3.78793 4.18415 3.32152 4.09489 2.9788 4.32752L3.8212 5.56863ZM2.97883 4.3275C2.63609 4.5601 2.54682 5.02651 2.77942 5.36924C3.01203 5.71198 3.47844 5.80125 3.82117 5.56865L2.97883 4.3275ZM8.616 1.40807L8.2091 0.778045C8.20431 0.781141 8.19955 0.784291 8.19483 0.787496L8.616 1.40807ZM11.384 1.40807L11.8052 0.787496C11.8005 0.784291 11.7957 0.781141 11.7909 0.778045L11.384 1.40807ZM16.1788 5.56865C16.5216 5.80125 16.988 5.71198 17.2206 5.36924C17.4532 5.02651 17.3639 4.5601 17.0212 4.3275L16.1788 5.56865ZM12.4 14.2501C11.9858 14.2501 11.65 14.5859 11.65 15.0001C11.65 15.4143 11.9858 15.7501 12.4 15.7501V14.2501ZM13 15.0001L13.0264 14.2505C13.0176 14.2502 13.0088 14.2501 13 14.2501V15.0001ZM16.6 11.6541L17.3495 11.6825C17.3498 11.673 17.35 11.6635 17.35 11.6541L16.6 11.6541ZM17.35 4.94807C17.35 4.53386 17.0142 4.19807 16.6 4.19807C16.1858 4.19807 15.85 4.53386 15.85 4.94807H17.35ZM18.579 7.19675C18.9218 7.42927 19.3882 7.33989 19.6207 6.9971C19.8532 6.65431 19.7638 6.18792 19.421 5.9554L18.579 7.19675ZM17.021 4.3274C16.6782 4.09487 16.2119 4.18426 15.9793 4.52705C15.7468 4.86984 15.8362 5.33622 16.179 5.56875L17.021 4.3274ZM8.35 15.0001V12.7691H6.85V15.0001H8.35ZM8.34945 12.7977C8.38248 11.9331 9.10886 11.2581 9.97359 11.2886L10.0264 9.78954C8.3355 9.72996 6.91513 11.0497 6.85055 12.7404L8.34945 12.7977ZM10.0264 11.2886C10.8911 11.2581 11.6175 11.9331 11.6505 12.7977L13.1495 12.7404C13.0849 11.0497 11.6645 9.72996 9.97359 9.78954L10.0264 11.2886ZM11.65 12.7691V15.0001H13.15V12.7691H11.65ZM7.6 15.7501H12.4V14.2501H7.6V15.7501ZM7.6 14.2501H7V15.7501H7.6V14.2501ZM6.9736 14.2505C5.46966 14.3035 4.20648 13.1294 4.14946 11.6257L2.65054 11.6825C2.73888 14.0125 4.69612 15.8317 7.0264 15.7496L6.9736 14.2505ZM4.15 11.6541V4.94807H2.65V11.6541H4.15ZM1.4212 7.19763L3.8212 5.56863L2.9788 4.32752L0.578798 5.95652L1.4212 7.19763ZM3.82117 5.56865L9.03717 2.02865L8.19483 0.787496L2.97883 4.3275L3.82117 5.56865ZM9.0229 2.0381C9.61767 1.65397 10.3823 1.65397 10.9771 2.0381L11.7909 0.778045C10.7008 0.0739852 9.29924 0.073985 8.2091 0.778045L9.0229 2.0381ZM10.9628 2.02865L16.1788 5.56865L17.0212 4.3275L11.8052 0.787496L10.9628 2.02865ZM12.4 15.7501H13V14.2501H12.4V15.7501ZM12.9736 15.7496C15.3039 15.8317 17.2611 14.0125 17.3495 11.6825L15.8505 11.6257C15.7935 13.1294 14.5303 14.3035 13.0264 14.2505L12.9736 15.7496ZM17.35 11.6541V4.94807H15.85V11.6541H17.35ZM19.421 5.9554L17.021 4.3274L16.179 5.56875L18.579 7.19675L19.421 5.9554Z" fill="black"/>
</svg>
