<svg width="18" height="17" viewBox="0 0 18 17" fill="none" xmlns="http://www.w3.org/2000/svg">
<path d="M7.24521 12.2194C7.49505 11.889 7.42976 11.4186 7.09938 11.1688C6.769 10.919 6.29864 10.9842 6.04879 11.3146L7.24521 12.2194ZM3.22579 15.0476C2.97595 15.378 3.04124 15.8484 3.37162 16.0982C3.702 16.3481 4.17236 16.2828 4.42221 15.9524L3.22579 15.0476ZM3.074 15.5C3.074 15.9142 3.40979 16.25 3.824 16.25C4.23821 16.25 4.574 15.9142 4.574 15.5H3.074ZM4.574 1.5C4.574 1.08579 4.23821 0.75 3.824 0.75C3.40979 0.75 3.074 1.08579 3.074 1.5H4.574ZM3.22587 15.9525C3.47577 16.2828 3.94614 16.348 4.27648 16.0981C4.60682 15.8482 4.67203 15.3779 4.42213 15.0475L3.22587 15.9525ZM1.59813 11.3145C1.34823 10.9842 0.877855 10.919 0.547517 11.1689C0.217179 11.4188 0.151971 11.8891 0.40187 12.2195L1.59813 11.3145ZM7.588 0.75C7.17379 0.75 6.838 1.08579 6.838 1.5C6.838 1.91421 7.17379 2.25 7.588 2.25V0.75ZM17 2.25C17.4142 2.25 17.75 1.91421 17.75 1.5C17.75 1.08579 17.4142 0.75 17 0.75V2.25ZM7.588 3.55C7.17379 3.55 6.838 3.88579 6.838 4.3C6.838 4.71421 7.17379 5.05 7.588 5.05V3.55ZM15.117 5.05C15.5312 5.05 15.867 4.71421 15.867 4.3C15.867 3.88579 15.5312 3.55 15.117 3.55V5.05ZM7.588 6.35C7.17379 6.35 6.838 6.68579 6.838 7.1C6.838 7.51421 7.17379 7.85 7.588 7.85V6.35ZM13.235 7.85C13.6492 7.85 13.985 7.51421 13.985 7.1C13.985 6.68579 13.6492 6.35 13.235 6.35V7.85ZM6.04879 11.3146L3.22579 15.0476L4.42221 15.9524L7.24521 12.2194L6.04879 11.3146ZM4.574 15.5V1.5H3.074V15.5H4.574ZM4.42213 15.0475L1.59813 11.3145L0.40187 12.2195L3.22587 15.9525L4.42213 15.0475ZM7.588 2.25H17V0.75H7.588V2.25ZM7.588 5.05H15.117V3.55H7.588V5.05ZM7.588 7.85H13.235V6.35H7.588V7.85Z" fill="black"/>
</svg>
