<svg width="16" height="10" viewBox="0 0 16 10" fill="none" xmlns="http://www.w3.org/2000/svg">
<path fill-rule="evenodd" clip-rule="evenodd" d="M6.63201 2.71395C5.639 4.24955 5.83279 6.26651 7.10001 7.58495C8.34683 8.88496 10.3527 9.0883 11.835 8.06495C12.1466 7.85051 12.4244 7.59063 12.659 7.29395C12.8897 7.00229 13.0773 6.67899 13.216 6.33395C13.5006 5.6253 13.5742 4.84948 13.428 4.09995C13.2841 3.35734 12.9268 2.67277 12.4 2.12995C11.8811 1.59347 11.2128 1.22552 10.482 1.07395C9.75412 0.92522 8.99817 1.00197 8.31501 1.29395C7.62536 1.58951 7.03943 2.08388 6.63201 2.71395Z" stroke="black" stroke-width="1.5" stroke-linecap="round" stroke-linejoin="round"/>
<path d="M13.0986 6.68676C12.7639 6.44285 12.2947 6.51652 12.0508 6.8513C11.8069 7.18609 11.8806 7.65521 12.2154 7.89912L13.0986 6.68676ZM14.5584 9.60612C14.8931 9.85003 15.3623 9.77636 15.6062 9.44158C15.8501 9.10679 15.7764 8.63767 15.4416 8.39376L14.5584 9.60612ZM3 5.74994C3.41421 5.74994 3.75 5.41415 3.75 4.99994C3.75 4.58573 3.41421 4.24994 3 4.24994V5.74994ZM1 4.24994C0.585786 4.24994 0.25 4.58573 0.25 4.99994C0.25 5.41415 0.585786 5.74994 1 5.74994V4.24994ZM3 8.74994C3.41421 8.74994 3.75 8.41415 3.75 7.99994C3.75 7.58573 3.41421 7.24994 3 7.24994V8.74994ZM1 7.24994C0.585786 7.24994 0.25 7.58573 0.25 7.99994C0.25 8.41415 0.585786 8.74994 1 8.74994V7.24994ZM4 2.74994C4.41421 2.74994 4.75 2.41415 4.75 1.99994C4.75 1.58573 4.41421 1.24994 4 1.24994V2.74994ZM1 1.24994C0.585786 1.24994 0.25 1.58573 0.25 1.99994C0.25 2.41415 0.585786 2.74994 1 2.74994V1.24994ZM12.2154 7.89912L14.5584 9.60612L15.4416 8.39376L13.0986 6.68676L12.2154 7.89912ZM3 4.24994H1V5.74994H3V4.24994ZM3 7.24994H1V8.74994H3V7.24994ZM4 1.24994H1V2.74994H4V1.24994Z" fill="black"/>
</svg>
