<svg width="79" height="88" viewBox="0 0 79 88" fill="none" xmlns="http://www.w3.org/2000/svg">
<path fill-rule="evenodd" clip-rule="evenodd" d="M68 13.8572L59.4286 1.00003H48.7143L53 13.8572L38 56.7143L68 13.8572Z" stroke="white" stroke-width="2" stroke-linecap="round" stroke-linejoin="round"/>
<path d="M7.16796 13.3025C6.8616 13.762 6.98578 14.3829 7.44531 14.6892C7.90483 14.9956 8.5257 14.8714 8.83206 14.4119L7.16796 13.3025ZM16.5714 1.00003V3.05176e-05C16.2371 3.05176e-05 15.9249 0.167132 15.7394 0.44533L16.5714 1.00003ZM27.2857 2.00003C27.838 2.00003 28.2857 1.55232 28.2857 1.00003C28.2857 0.447746 27.838 3.05176e-05 27.2857 3.05176e-05V2.00003ZM8.81924 13.2837C8.50252 12.8313 7.87899 12.7212 7.42654 13.0379C6.97409 13.3547 6.86406 13.9782 7.18077 14.4306L8.81924 13.2837ZM38 56.7143L37.1808 57.2878C37.4672 57.697 38.0117 57.8321 38.4562 57.6042C38.9007 57.3763 39.1089 56.8554 38.9439 56.384L38 56.7143ZM23.9439 13.5268C23.7614 13.0055 23.1909 12.7309 22.6697 12.9133C22.1484 13.0958 21.8737 13.6662 22.0561 14.1875L23.9439 13.5268ZM8.00001 12.8572C7.44772 12.8572 7.00001 13.3049 7.00001 13.8572C7.00001 14.4095 7.44772 14.8572 8.00001 14.8572V12.8572ZM23 14.8572C23.5523 14.8572 24 14.4095 24 13.8572C24 13.3049 23.5523 12.8572 23 12.8572V14.8572ZM28.2344 1.31626C28.4091 0.792315 28.1259 0.225995 27.6019 0.0513472C27.078 -0.123301 26.5117 0.159859 26.337 0.683803L28.2344 1.31626ZM22.0513 13.5409C21.8767 14.0649 22.1598 14.6312 22.6838 14.8059C23.2077 14.9805 23.774 14.6973 23.9487 14.1734L22.0513 13.5409ZM27.2857 3.05176e-05C26.7334 3.05176e-05 26.2857 0.447746 26.2857 1.00003C26.2857 1.55232 26.7334 2.00003 27.2857 2.00003V3.05176e-05ZM48.7143 2.00003C49.2666 2.00003 49.7143 1.55232 49.7143 1.00003C49.7143 0.447746 49.2666 3.05176e-05 48.7143 3.05176e-05V2.00003ZM23 12.8572C22.4477 12.8572 22 13.3049 22 13.8572C22 14.4095 22.4477 14.8572 23 14.8572V12.8572ZM68 14.8572C68.5523 14.8572 69 14.4095 69 13.8572C69 13.3049 68.5523 12.8572 68 12.8572V14.8572ZM8.83206 14.4119L17.4035 1.55473L15.7394 0.44533L7.16796 13.3025L8.83206 14.4119ZM16.5714 2.00003H27.2857V3.05176e-05H16.5714V2.00003ZM7.18077 14.4306L37.1808 57.2878L38.8192 56.1409L8.81924 13.2837L7.18077 14.4306ZM38.9439 56.384L23.9439 13.5268L22.0561 14.1875L37.0561 57.0447L38.9439 56.384ZM8.00001 14.8572H23V12.8572H8.00001V14.8572ZM26.337 0.683803L22.0513 13.5409L23.9487 14.1734L28.2344 1.31626L26.337 0.683803ZM27.2857 2.00003H48.7143V3.05176e-05H27.2857V2.00003ZM23 14.8572H68V12.8572H23V14.8572Z" fill="white"/>
<path fill-rule="evenodd" clip-rule="evenodd" d="M7.23646 51.7165C9.16643 49.2666 9.01971 45.7749 6.89101 43.4956C9.34088 45.4255 12.8326 45.2788 15.1119 43.1501C13.1819 45.6 13.3287 49.0917 15.4574 51.371C13.0075 49.441 9.51578 49.5878 7.23646 51.7165V51.7165Z" stroke="white" stroke-width="2" stroke-linecap="round" stroke-linejoin="round"/>
<path fill-rule="evenodd" clip-rule="evenodd" d="M9.63715 59.851C10.6018 58.626 10.5285 56.8803 9.46442 55.7405C10.6895 56.7052 12.4351 56.6319 13.5749 55.5678C12.6102 56.7928 12.6835 58.5385 13.7476 59.6783C12.5226 58.7136 10.7769 58.7869 9.63715 59.851Z" stroke="white" stroke-linecap="round" stroke-linejoin="round"/>
<path fill-rule="evenodd" clip-rule="evenodd" d="M23.4192 44.8599C22.2794 45.9239 20.5338 45.9973 19.3087 45.0326C20.3728 46.1724 20.4461 47.918 19.4814 49.143C20.6212 48.079 22.3669 48.0056 23.5919 48.9703C22.5278 47.8305 22.4545 46.0849 23.4192 44.8599Z" stroke="white" stroke-linecap="round" stroke-linejoin="round"/>
<path fill-rule="evenodd" clip-rule="evenodd" d="M60.8009 36C63.8267 42.9536 59.5335 47.5612 57 49.4742C63.9536 46.4484 68.5612 50.7415 70.4742 53.275C69.3139 50.32 68.0614 44.1482 74.275 39.8009C71.32 40.9612 65.1482 42.2136 60.8009 36Z" stroke="white" stroke-width="2" stroke-linecap="round" stroke-linejoin="round"/>
</svg>
